%TF.GenerationSoftware,KiCad,Pcbnew,(5.1.6)-1*%
%TF.CreationDate,2020-07-21T19:36:40-05:00*%
%TF.ProjectId,AppleIIeCardYCable,4170706c-6549-4496-9543-617264594361,rev?*%
%TF.SameCoordinates,Original*%
%TF.FileFunction,Copper,L2,Bot*%
%TF.FilePolarity,Positive*%
%FSLAX46Y46*%
G04 Gerber Fmt 4.6, Leading zero omitted, Abs format (unit mm)*
G04 Created by KiCad (PCBNEW (5.1.6)-1) date 2020-07-21 19:36:40*
%MOMM*%
%LPD*%
G01*
G04 APERTURE LIST*
%TA.AperFunction,ComponentPad*%
%ADD10C,1.950000*%
%TD*%
%TA.AperFunction,ComponentPad*%
%ADD11C,4.800000*%
%TD*%
%TA.AperFunction,ComponentPad*%
%ADD12C,1.500000*%
%TD*%
%TA.AperFunction,ComponentPad*%
%ADD13C,4.300000*%
%TD*%
%TA.AperFunction,ComponentPad*%
%ADD14O,1.700000X1.700000*%
%TD*%
%TA.AperFunction,ComponentPad*%
%ADD15R,1.700000X1.700000*%
%TD*%
%TA.AperFunction,Conductor*%
%ADD16C,0.250000*%
%TD*%
%TA.AperFunction,Conductor*%
%ADD17C,0.254000*%
%TD*%
G04 APERTURE END LIST*
D10*
%TO.P,J1,1*%
%TO.N,Net-(J1-Pad1)*%
X139082001Y-81250001D03*
%TO.P,J1,2*%
%TO.N,GND*%
X141372001Y-81250001D03*
%TO.P,J1,3*%
%TO.N,Net-(J1-Pad3)*%
X143662001Y-81250001D03*
%TO.P,J1,4*%
%TO.N,GND*%
X145952001Y-81250001D03*
%TO.P,J1,5*%
%TO.N,+5V*%
X148242001Y-81250001D03*
%TO.P,J1,6*%
%TO.N,Net-(J1-Pad6)*%
X150532001Y-81250001D03*
%TO.P,J1,7*%
%TO.N,Net-(J1-Pad7)*%
X152822001Y-81250001D03*
%TO.P,J1,8*%
%TO.N,Net-(J1-Pad8)*%
X155112001Y-81250001D03*
%TO.P,J1,9*%
%TO.N,Net-(J1-Pad9)*%
X157402001Y-81250001D03*
%TO.P,J1,10*%
%TO.N,Net-(J1-Pad10)*%
X137937001Y-83790001D03*
%TO.P,J1,11*%
%TO.N,Net-(J1-Pad11)*%
X140227001Y-83790001D03*
%TO.P,J1,12*%
%TO.N,Net-(J1-Pad12)*%
X142517001Y-83790001D03*
%TO.P,J1,13*%
%TO.N,GND*%
X144807001Y-83790001D03*
%TO.P,J1,14*%
X147097001Y-83790001D03*
%TO.P,J1,15*%
%TO.N,Net-(J1-Pad15)*%
X149387001Y-83790001D03*
%TO.P,J1,16*%
%TO.N,Net-(J1-Pad16)*%
X151677001Y-83790001D03*
%TO.P,J1,17*%
%TO.N,Net-(J1-Pad17)*%
X153967001Y-83790001D03*
%TO.P,J1,18*%
%TO.N,Net-(J1-Pad18)*%
X156257001Y-83790001D03*
%TO.P,J1,19*%
%TO.N,Net-(J1-Pad19)*%
X139082001Y-86330001D03*
%TO.P,J1,20*%
%TO.N,Net-(J1-Pad20)*%
X141372001Y-86330001D03*
%TO.P,J1,21*%
%TO.N,Net-(J1-Pad21)*%
X143662001Y-86330001D03*
%TO.P,J1,22*%
%TO.N,Net-(J1-Pad22)*%
X145952001Y-86330001D03*
%TO.P,J1,23*%
%TO.N,Net-(J1-Pad23)*%
X148242001Y-86330001D03*
%TO.P,J1,24*%
%TO.N,Net-(J1-Pad24)*%
X150532001Y-86330001D03*
%TO.P,J1,25*%
%TO.N,Net-(J1-Pad25)*%
X152822001Y-86330001D03*
%TO.P,J1,26*%
%TO.N,Net-(J1-Pad26)*%
X155112001Y-86330001D03*
D11*
%TO.P,J1,MH1*%
%TO.N,Net-(J1-PadMH1)*%
X131067001Y-83790001D03*
%TO.P,J1,MH2*%
%TO.N,Net-(J1-PadMH2)*%
X164392001Y-83790001D03*
%TD*%
D12*
%TO.P,J2,1*%
%TO.N,Net-(J1-Pad1)*%
X125270000Y-67540000D03*
%TO.P,J2,2*%
%TO.N,Net-(J1-Pad21)*%
X128040000Y-67540000D03*
%TO.P,J2,3*%
%TO.N,GND*%
X130810000Y-67540000D03*
%TO.P,J2,4*%
%TO.N,Net-(J1-Pad20)*%
X133580000Y-67540000D03*
%TO.P,J2,5*%
%TO.N,Net-(J1-Pad12)*%
X136350000Y-67540000D03*
%TO.P,J2,6*%
%TO.N,Net-(J1-Pad19)*%
X126655000Y-64700000D03*
%TO.P,J2,7*%
%TO.N,Net-(J1-Pad10)*%
X129425000Y-64700000D03*
%TO.P,J2,8*%
%TO.N,Net-(J1-Pad3)*%
X132195000Y-64700000D03*
%TO.P,J2,9*%
%TO.N,Net-(J1-Pad11)*%
X134965000Y-64700000D03*
D13*
%TO.P,J2,10*%
%TO.N,N/C*%
X143305000Y-66120000D03*
%TO.P,J2,11*%
X118315000Y-66120000D03*
%TD*%
D14*
%TO.P,J3,20*%
%TO.N,Net-(J1-Pad15)*%
X181610000Y-62230000D03*
%TO.P,J3,19*%
%TO.N,Net-(J3-Pad19)*%
X181610000Y-64770000D03*
%TO.P,J3,18*%
%TO.N,Net-(J1-Pad18)*%
X179070000Y-62230000D03*
%TO.P,J3,17*%
%TO.N,Net-(J3-Pad17)*%
X179070000Y-64770000D03*
%TO.P,J3,16*%
%TO.N,Net-(J1-Pad9)*%
X176530000Y-62230000D03*
%TO.P,J3,15*%
%TO.N,Net-(J3-Pad15)*%
X176530000Y-64770000D03*
%TO.P,J3,14*%
%TO.N,Net-(J1-Pad26)*%
X173990000Y-62230000D03*
%TO.P,J3,13*%
%TO.N,Net-(J3-Pad13)*%
X173990000Y-64770000D03*
%TO.P,J3,12*%
%TO.N,Net-(J1-Pad17)*%
X171450000Y-62230000D03*
%TO.P,J3,11*%
%TO.N,+5V*%
X171450000Y-64770000D03*
%TO.P,J3,10*%
%TO.N,Net-(J1-Pad8)*%
X168910000Y-62230000D03*
%TO.P,J3,9*%
%TO.N,Net-(J3-Pad9)*%
X168910000Y-64770000D03*
%TO.P,J3,8*%
%TO.N,Net-(J1-Pad25)*%
X166370000Y-62230000D03*
%TO.P,J3,7*%
%TO.N,GND*%
X166370000Y-64770000D03*
%TO.P,J3,6*%
%TO.N,Net-(J1-Pad16)*%
X163830000Y-62230000D03*
%TO.P,J3,5*%
%TO.N,GND*%
X163830000Y-64770000D03*
%TO.P,J3,4*%
%TO.N,Net-(J1-Pad7)*%
X161290000Y-62230000D03*
%TO.P,J3,3*%
%TO.N,GND*%
X161290000Y-64770000D03*
%TO.P,J3,2*%
%TO.N,Net-(J1-Pad24)*%
X158750000Y-62230000D03*
D15*
%TO.P,J3,1*%
%TO.N,GND*%
X158750000Y-64770000D03*
%TD*%
D16*
%TO.N,Net-(J1-Pad1)*%
X125372000Y-67540000D02*
X125270000Y-67540000D01*
X139082001Y-81250001D02*
X125372000Y-67540000D01*
%TO.N,Net-(J1-Pad3)*%
X143662001Y-81250001D02*
X132262000Y-69850000D01*
X132262000Y-69850000D02*
X132262000Y-66222000D01*
X132195000Y-66155000D02*
X132195000Y-64700000D01*
X132262000Y-66222000D02*
X132195000Y-66155000D01*
%TO.N,GND*%
X141372001Y-81250001D02*
X131242000Y-71120000D01*
X131242000Y-71120000D02*
X131242000Y-69012000D01*
X130810000Y-68580000D02*
X130810000Y-67540000D01*
X131242000Y-69012000D02*
X130810000Y-68580000D01*
X147097001Y-83790001D02*
X147290001Y-83790001D01*
X166370000Y-64770000D02*
X158750000Y-64770000D01*
X158750000Y-68452002D02*
X145952001Y-81250001D01*
X158750000Y-64770000D02*
X158750000Y-68452002D01*
X145952001Y-82645001D02*
X144807001Y-83790001D01*
X145952001Y-81250001D02*
X145952001Y-82645001D01*
X144807001Y-83790001D02*
X147097001Y-83790001D01*
X141737999Y-81250001D02*
X141372001Y-81250001D01*
X143038000Y-82550002D02*
X141737999Y-81250001D01*
X143567002Y-82550002D02*
X143038000Y-82550002D01*
X144807001Y-83790001D02*
X143567002Y-82550002D01*
%TO.N,+5V*%
X171450000Y-66040000D02*
X171450000Y-64770000D01*
X148242001Y-81250001D02*
X149542002Y-79950000D01*
X157540000Y-79950000D02*
X171450000Y-66040000D01*
X149542002Y-79950000D02*
X157540000Y-79950000D01*
%TO.N,Net-(J1-Pad11)*%
X140592999Y-83790001D02*
X141893000Y-82490000D01*
X140227001Y-83790001D02*
X140592999Y-83790001D01*
X138458000Y-82550002D02*
X127027998Y-71120000D01*
X141893000Y-82490000D02*
X142056004Y-82490000D01*
X141996002Y-82550002D02*
X138458000Y-82550002D01*
X142056004Y-82490000D02*
X141996002Y-82550002D01*
X127027998Y-71120000D02*
X123190000Y-71120000D01*
X123190000Y-71120000D02*
X123190000Y-63500000D01*
X123190000Y-63500000D02*
X134620000Y-63500000D01*
X134620000Y-64355000D02*
X134965000Y-64700000D01*
X134620000Y-63500000D02*
X134620000Y-64355000D01*
%TO.N,Net-(J1-Pad16)*%
X165005001Y-61054999D02*
X163830000Y-62230000D01*
X172625001Y-61665999D02*
X172014001Y-61054999D01*
X172625001Y-62768591D02*
X172625001Y-61665999D01*
X173451409Y-63594999D02*
X172625001Y-62768591D01*
X174554001Y-63594999D02*
X173451409Y-63594999D01*
X175165001Y-64205999D02*
X174554001Y-63594999D01*
X156881002Y-85090002D02*
X175165001Y-66806003D01*
X155633000Y-85090002D02*
X156881002Y-85090002D01*
X155112001Y-84569003D02*
X155633000Y-85090002D01*
X172014001Y-61054999D02*
X165005001Y-61054999D01*
X154591002Y-85090002D02*
X155112001Y-84569003D01*
X153343000Y-85090002D02*
X154591002Y-85090002D01*
X152042999Y-83790001D02*
X153343000Y-85090002D01*
X175165001Y-66806003D02*
X175165001Y-64205999D01*
X151677001Y-83790001D02*
X152042999Y-83790001D01*
%TO.N,Net-(J1-Pad17)*%
X172625001Y-67951003D02*
X172625001Y-63405001D01*
X156778000Y-82550002D02*
X158026002Y-82550002D01*
X172625001Y-63405001D02*
X171450000Y-62230000D01*
X158026002Y-82550002D02*
X172625001Y-67951003D01*
X155633000Y-82490000D02*
X156717998Y-82490000D01*
X154332999Y-83790001D02*
X155633000Y-82490000D01*
X156717998Y-82490000D02*
X156778000Y-82550002D01*
X153967001Y-83790001D02*
X154332999Y-83790001D01*
%TD*%
D17*
%TO.N,GND*%
G36*
X186563000Y-90043000D02*
G01*
X115697000Y-90043000D01*
X115697000Y-82329872D01*
X117145000Y-82329872D01*
X117145000Y-82770128D01*
X117230890Y-83201925D01*
X117399369Y-83608669D01*
X117643962Y-83974729D01*
X117955271Y-84286038D01*
X118321331Y-84530631D01*
X118728075Y-84699110D01*
X119159872Y-84785000D01*
X119600128Y-84785000D01*
X120031925Y-84699110D01*
X120438669Y-84530631D01*
X120804729Y-84286038D01*
X121116038Y-83974729D01*
X121360631Y-83608669D01*
X121409337Y-83491080D01*
X128032001Y-83491080D01*
X128032001Y-84088922D01*
X128148634Y-84675278D01*
X128377419Y-85227613D01*
X128709563Y-85724701D01*
X129132301Y-86147439D01*
X129629389Y-86479583D01*
X130181724Y-86708368D01*
X130768080Y-86825001D01*
X131365922Y-86825001D01*
X131952278Y-86708368D01*
X132504613Y-86479583D01*
X133001701Y-86147439D01*
X133424439Y-85724701D01*
X133756583Y-85227613D01*
X133985368Y-84675278D01*
X134102001Y-84088922D01*
X134102001Y-83491080D01*
X133985368Y-82904724D01*
X133756583Y-82352389D01*
X133424439Y-81855301D01*
X133001701Y-81432563D01*
X132504613Y-81100419D01*
X131952278Y-80871634D01*
X131365922Y-80755001D01*
X130768080Y-80755001D01*
X130181724Y-80871634D01*
X129629389Y-81100419D01*
X129132301Y-81432563D01*
X128709563Y-81855301D01*
X128377419Y-82352389D01*
X128148634Y-82904724D01*
X128032001Y-83491080D01*
X121409337Y-83491080D01*
X121529110Y-83201925D01*
X121615000Y-82770128D01*
X121615000Y-82329872D01*
X121529110Y-81898075D01*
X121360631Y-81491331D01*
X121116038Y-81125271D01*
X120804729Y-80813962D01*
X120438669Y-80569369D01*
X120031925Y-80400890D01*
X119600128Y-80315000D01*
X119159872Y-80315000D01*
X118728075Y-80400890D01*
X118321331Y-80569369D01*
X117955271Y-80813962D01*
X117643962Y-81125271D01*
X117399369Y-81491331D01*
X117230890Y-81898075D01*
X117145000Y-82329872D01*
X115697000Y-82329872D01*
X115697000Y-67077144D01*
X115846965Y-67439192D01*
X116151750Y-67895334D01*
X116539666Y-68283250D01*
X116995808Y-68588035D01*
X117502646Y-68797974D01*
X118040701Y-68905000D01*
X118589299Y-68905000D01*
X119127354Y-68797974D01*
X119634192Y-68588035D01*
X120090334Y-68283250D01*
X120478250Y-67895334D01*
X120783035Y-67439192D01*
X120992974Y-66932354D01*
X121100000Y-66394299D01*
X121100000Y-65845701D01*
X120992974Y-65307646D01*
X120783035Y-64800808D01*
X120478250Y-64344666D01*
X120090334Y-63956750D01*
X119634192Y-63651965D01*
X119267316Y-63500000D01*
X122426323Y-63500000D01*
X122430001Y-63537343D01*
X122430000Y-71082667D01*
X122426323Y-71120000D01*
X122440997Y-71268986D01*
X122484454Y-71412247D01*
X122555026Y-71544276D01*
X122626200Y-71631002D01*
X122649999Y-71660001D01*
X122765724Y-71754974D01*
X122897753Y-71825546D01*
X123041014Y-71869003D01*
X123190000Y-71883677D01*
X123227333Y-71880000D01*
X126713197Y-71880000D01*
X137189975Y-82356778D01*
X137174380Y-82363238D01*
X136910686Y-82539432D01*
X136686432Y-82763686D01*
X136510238Y-83027380D01*
X136388872Y-83320381D01*
X136327001Y-83631430D01*
X136327001Y-83948572D01*
X136388872Y-84259621D01*
X136510238Y-84552622D01*
X136686432Y-84816316D01*
X136910686Y-85040570D01*
X137174380Y-85216764D01*
X137467381Y-85338130D01*
X137768409Y-85398008D01*
X137655238Y-85567380D01*
X137533872Y-85860381D01*
X137472001Y-86171430D01*
X137472001Y-86488572D01*
X137533872Y-86799621D01*
X137655238Y-87092622D01*
X137831432Y-87356316D01*
X138055686Y-87580570D01*
X138319380Y-87756764D01*
X138612381Y-87878130D01*
X138923430Y-87940001D01*
X139240572Y-87940001D01*
X139551621Y-87878130D01*
X139844622Y-87756764D01*
X140108316Y-87580570D01*
X140227001Y-87461885D01*
X140345686Y-87580570D01*
X140609380Y-87756764D01*
X140902381Y-87878130D01*
X141213430Y-87940001D01*
X141530572Y-87940001D01*
X141841621Y-87878130D01*
X142134622Y-87756764D01*
X142398316Y-87580570D01*
X142517001Y-87461885D01*
X142635686Y-87580570D01*
X142899380Y-87756764D01*
X143192381Y-87878130D01*
X143503430Y-87940001D01*
X143820572Y-87940001D01*
X144131621Y-87878130D01*
X144424622Y-87756764D01*
X144688316Y-87580570D01*
X144807001Y-87461885D01*
X144925686Y-87580570D01*
X145189380Y-87756764D01*
X145482381Y-87878130D01*
X145793430Y-87940001D01*
X146110572Y-87940001D01*
X146421621Y-87878130D01*
X146714622Y-87756764D01*
X146978316Y-87580570D01*
X147097001Y-87461885D01*
X147215686Y-87580570D01*
X147479380Y-87756764D01*
X147772381Y-87878130D01*
X148083430Y-87940001D01*
X148400572Y-87940001D01*
X148711621Y-87878130D01*
X149004622Y-87756764D01*
X149268316Y-87580570D01*
X149387001Y-87461885D01*
X149505686Y-87580570D01*
X149769380Y-87756764D01*
X150062381Y-87878130D01*
X150373430Y-87940001D01*
X150690572Y-87940001D01*
X151001621Y-87878130D01*
X151294622Y-87756764D01*
X151558316Y-87580570D01*
X151677001Y-87461885D01*
X151795686Y-87580570D01*
X152059380Y-87756764D01*
X152352381Y-87878130D01*
X152663430Y-87940001D01*
X152980572Y-87940001D01*
X153291621Y-87878130D01*
X153584622Y-87756764D01*
X153848316Y-87580570D01*
X153967001Y-87461885D01*
X154085686Y-87580570D01*
X154349380Y-87756764D01*
X154642381Y-87878130D01*
X154953430Y-87940001D01*
X155270572Y-87940001D01*
X155581621Y-87878130D01*
X155874622Y-87756764D01*
X156138316Y-87580570D01*
X156362570Y-87356316D01*
X156538764Y-87092622D01*
X156660130Y-86799621D01*
X156722001Y-86488572D01*
X156722001Y-86171430D01*
X156660130Y-85860381D01*
X156655831Y-85850002D01*
X156843680Y-85850002D01*
X156881002Y-85853678D01*
X156918324Y-85850002D01*
X156918335Y-85850002D01*
X157029988Y-85839005D01*
X157173249Y-85795548D01*
X157305278Y-85724976D01*
X157421003Y-85630003D01*
X157444806Y-85600999D01*
X159554725Y-83491080D01*
X161357001Y-83491080D01*
X161357001Y-84088922D01*
X161473634Y-84675278D01*
X161702419Y-85227613D01*
X162034563Y-85724701D01*
X162457301Y-86147439D01*
X162954389Y-86479583D01*
X163506724Y-86708368D01*
X164093080Y-86825001D01*
X164690922Y-86825001D01*
X165277278Y-86708368D01*
X165829613Y-86479583D01*
X166326701Y-86147439D01*
X166749439Y-85724701D01*
X167081583Y-85227613D01*
X167310368Y-84675278D01*
X167427001Y-84088922D01*
X167427001Y-83491080D01*
X167310368Y-82904724D01*
X167081583Y-82352389D01*
X166749439Y-81855301D01*
X166326701Y-81432563D01*
X165829613Y-81100419D01*
X165731725Y-81059872D01*
X175565000Y-81059872D01*
X175565000Y-81500128D01*
X175650890Y-81931925D01*
X175819369Y-82338669D01*
X176063962Y-82704729D01*
X176375271Y-83016038D01*
X176741331Y-83260631D01*
X177148075Y-83429110D01*
X177579872Y-83515000D01*
X178020128Y-83515000D01*
X178451925Y-83429110D01*
X178858669Y-83260631D01*
X179224729Y-83016038D01*
X179536038Y-82704729D01*
X179780631Y-82338669D01*
X179949110Y-81931925D01*
X180035000Y-81500128D01*
X180035000Y-81059872D01*
X179949110Y-80628075D01*
X179780631Y-80221331D01*
X179536038Y-79855271D01*
X179224729Y-79543962D01*
X178858669Y-79299369D01*
X178451925Y-79130890D01*
X178020128Y-79045000D01*
X177579872Y-79045000D01*
X177148075Y-79130890D01*
X176741331Y-79299369D01*
X176375271Y-79543962D01*
X176063962Y-79855271D01*
X175819369Y-80221331D01*
X175650890Y-80628075D01*
X175565000Y-81059872D01*
X165731725Y-81059872D01*
X165277278Y-80871634D01*
X164690922Y-80755001D01*
X164093080Y-80755001D01*
X163506724Y-80871634D01*
X162954389Y-81100419D01*
X162457301Y-81432563D01*
X162034563Y-81855301D01*
X161702419Y-82352389D01*
X161473634Y-82904724D01*
X161357001Y-83491080D01*
X159554725Y-83491080D01*
X175676005Y-67369801D01*
X175705002Y-67346004D01*
X175799975Y-67230279D01*
X175870547Y-67098250D01*
X175914004Y-66954989D01*
X175925001Y-66843336D01*
X175925001Y-66843327D01*
X175928677Y-66806004D01*
X175925001Y-66768681D01*
X175925001Y-66126753D01*
X176096842Y-66197932D01*
X176383740Y-66255000D01*
X176676260Y-66255000D01*
X176963158Y-66197932D01*
X177233411Y-66085990D01*
X177476632Y-65923475D01*
X177683475Y-65716632D01*
X177800000Y-65542240D01*
X177916525Y-65716632D01*
X178123368Y-65923475D01*
X178366589Y-66085990D01*
X178636842Y-66197932D01*
X178923740Y-66255000D01*
X179216260Y-66255000D01*
X179503158Y-66197932D01*
X179773411Y-66085990D01*
X180016632Y-65923475D01*
X180223475Y-65716632D01*
X180340000Y-65542240D01*
X180456525Y-65716632D01*
X180663368Y-65923475D01*
X180906589Y-66085990D01*
X181176842Y-66197932D01*
X181463740Y-66255000D01*
X181756260Y-66255000D01*
X182043158Y-66197932D01*
X182313411Y-66085990D01*
X182556632Y-65923475D01*
X182763475Y-65716632D01*
X182925990Y-65473411D01*
X183037932Y-65203158D01*
X183095000Y-64916260D01*
X183095000Y-64623740D01*
X183037932Y-64336842D01*
X182925990Y-64066589D01*
X182763475Y-63823368D01*
X182556632Y-63616525D01*
X182382240Y-63500000D01*
X182556632Y-63383475D01*
X182763475Y-63176632D01*
X182925990Y-62933411D01*
X183037932Y-62663158D01*
X183095000Y-62376260D01*
X183095000Y-62083740D01*
X183037932Y-61796842D01*
X182925990Y-61526589D01*
X182763475Y-61283368D01*
X182556632Y-61076525D01*
X182313411Y-60914010D01*
X182043158Y-60802068D01*
X181756260Y-60745000D01*
X181463740Y-60745000D01*
X181176842Y-60802068D01*
X180906589Y-60914010D01*
X180663368Y-61076525D01*
X180456525Y-61283368D01*
X180340000Y-61457760D01*
X180223475Y-61283368D01*
X180016632Y-61076525D01*
X179773411Y-60914010D01*
X179503158Y-60802068D01*
X179216260Y-60745000D01*
X178923740Y-60745000D01*
X178636842Y-60802068D01*
X178366589Y-60914010D01*
X178123368Y-61076525D01*
X177916525Y-61283368D01*
X177800000Y-61457760D01*
X177683475Y-61283368D01*
X177476632Y-61076525D01*
X177233411Y-60914010D01*
X176963158Y-60802068D01*
X176676260Y-60745000D01*
X176383740Y-60745000D01*
X176096842Y-60802068D01*
X175826589Y-60914010D01*
X175583368Y-61076525D01*
X175376525Y-61283368D01*
X175260000Y-61457760D01*
X175143475Y-61283368D01*
X174936632Y-61076525D01*
X174693411Y-60914010D01*
X174423158Y-60802068D01*
X174136260Y-60745000D01*
X173843740Y-60745000D01*
X173556842Y-60802068D01*
X173286589Y-60914010D01*
X173083509Y-61049704D01*
X172577804Y-60544001D01*
X172554002Y-60514998D01*
X172438277Y-60420025D01*
X172306248Y-60349453D01*
X172162987Y-60305996D01*
X172051334Y-60294999D01*
X172051323Y-60294999D01*
X172014001Y-60291323D01*
X171976679Y-60294999D01*
X165042323Y-60294999D01*
X165005000Y-60291323D01*
X164967677Y-60294999D01*
X164967668Y-60294999D01*
X164856015Y-60305996D01*
X164712754Y-60349453D01*
X164580725Y-60420025D01*
X164465000Y-60514998D01*
X164441202Y-60543996D01*
X164196408Y-60788790D01*
X163976260Y-60745000D01*
X163683740Y-60745000D01*
X163396842Y-60802068D01*
X163126589Y-60914010D01*
X162883368Y-61076525D01*
X162676525Y-61283368D01*
X162560000Y-61457760D01*
X162443475Y-61283368D01*
X162236632Y-61076525D01*
X161993411Y-60914010D01*
X161723158Y-60802068D01*
X161436260Y-60745000D01*
X161143740Y-60745000D01*
X160856842Y-60802068D01*
X160586589Y-60914010D01*
X160343368Y-61076525D01*
X160136525Y-61283368D01*
X160020000Y-61457760D01*
X159903475Y-61283368D01*
X159696632Y-61076525D01*
X159453411Y-60914010D01*
X159183158Y-60802068D01*
X158896260Y-60745000D01*
X158603740Y-60745000D01*
X158316842Y-60802068D01*
X158046589Y-60914010D01*
X157803368Y-61076525D01*
X157596525Y-61283368D01*
X157434010Y-61526589D01*
X157322068Y-61796842D01*
X157265000Y-62083740D01*
X157265000Y-62376260D01*
X157322068Y-62663158D01*
X157434010Y-62933411D01*
X157596525Y-63176632D01*
X157728380Y-63308487D01*
X157655820Y-63330498D01*
X157545506Y-63389463D01*
X157448815Y-63468815D01*
X157369463Y-63565506D01*
X157310498Y-63675820D01*
X157274188Y-63795518D01*
X157261928Y-63920000D01*
X157265000Y-64484250D01*
X157423750Y-64643000D01*
X158623000Y-64643000D01*
X158623000Y-64623000D01*
X158877000Y-64623000D01*
X158877000Y-64643000D01*
X161163000Y-64643000D01*
X161163000Y-64623000D01*
X161417000Y-64623000D01*
X161417000Y-64643000D01*
X163703000Y-64643000D01*
X163703000Y-64623000D01*
X163957000Y-64623000D01*
X163957000Y-64643000D01*
X166243000Y-64643000D01*
X166243000Y-64623000D01*
X166497000Y-64623000D01*
X166497000Y-64643000D01*
X166517000Y-64643000D01*
X166517000Y-64897000D01*
X166497000Y-64897000D01*
X166497000Y-66090155D01*
X166726890Y-66211476D01*
X166874099Y-66166825D01*
X167136920Y-66041641D01*
X167370269Y-65867588D01*
X167565178Y-65651355D01*
X167634805Y-65534466D01*
X167756525Y-65716632D01*
X167963368Y-65923475D01*
X168206589Y-66085990D01*
X168476842Y-66197932D01*
X168763740Y-66255000D01*
X169056260Y-66255000D01*
X169343158Y-66197932D01*
X169613411Y-66085990D01*
X169856632Y-65923475D01*
X170063475Y-65716632D01*
X170180000Y-65542240D01*
X170296525Y-65716632D01*
X170497546Y-65917653D01*
X157225199Y-79190000D01*
X149579324Y-79190000D01*
X149542001Y-79186324D01*
X149504678Y-79190000D01*
X149504669Y-79190000D01*
X149393016Y-79200997D01*
X149249755Y-79244454D01*
X149117725Y-79315026D01*
X149034085Y-79383668D01*
X149002001Y-79409999D01*
X148978203Y-79438997D01*
X148714242Y-79702958D01*
X148711621Y-79701872D01*
X148400572Y-79640001D01*
X148083430Y-79640001D01*
X147772381Y-79701872D01*
X147479380Y-79823238D01*
X147215686Y-79999432D01*
X146991432Y-80223686D01*
X146815238Y-80487380D01*
X146759384Y-80622223D01*
X146131606Y-81250001D01*
X146145749Y-81264144D01*
X145966144Y-81443749D01*
X145952001Y-81429606D01*
X145937859Y-81443749D01*
X145758254Y-81264144D01*
X145772396Y-81250001D01*
X145144618Y-80622223D01*
X145088764Y-80487380D01*
X144912570Y-80223686D01*
X144821301Y-80132417D01*
X145014022Y-80132417D01*
X145952001Y-81070396D01*
X146889980Y-80132417D01*
X146797235Y-79870572D01*
X146511881Y-79732181D01*
X146205011Y-79652118D01*
X145888417Y-79633461D01*
X145574268Y-79676927D01*
X145274634Y-79780845D01*
X145106767Y-79870572D01*
X145014022Y-80132417D01*
X144821301Y-80132417D01*
X144688316Y-79999432D01*
X144424622Y-79823238D01*
X144131621Y-79701872D01*
X143820572Y-79640001D01*
X143503430Y-79640001D01*
X143192381Y-79701872D01*
X143189760Y-79702958D01*
X133022000Y-69535199D01*
X133022000Y-68807982D01*
X133176011Y-68871775D01*
X133443589Y-68925000D01*
X133716411Y-68925000D01*
X133983989Y-68871775D01*
X134236043Y-68767371D01*
X134462886Y-68615799D01*
X134655799Y-68422886D01*
X134807371Y-68196043D01*
X134911775Y-67943989D01*
X134965000Y-67676411D01*
X135018225Y-67943989D01*
X135122629Y-68196043D01*
X135274201Y-68422886D01*
X135467114Y-68615799D01*
X135693957Y-68767371D01*
X135946011Y-68871775D01*
X136213589Y-68925000D01*
X136486411Y-68925000D01*
X136753989Y-68871775D01*
X137006043Y-68767371D01*
X137232886Y-68615799D01*
X137425799Y-68422886D01*
X137577371Y-68196043D01*
X137681775Y-67943989D01*
X137735000Y-67676411D01*
X137735000Y-67403589D01*
X137681775Y-67136011D01*
X137577371Y-66883957D01*
X137425799Y-66657114D01*
X137232886Y-66464201D01*
X137006043Y-66312629D01*
X136753989Y-66208225D01*
X136486411Y-66155000D01*
X136213589Y-66155000D01*
X135946011Y-66208225D01*
X135693957Y-66312629D01*
X135467114Y-66464201D01*
X135274201Y-66657114D01*
X135122629Y-66883957D01*
X135018225Y-67136011D01*
X134965000Y-67403589D01*
X134911775Y-67136011D01*
X134807371Y-66883957D01*
X134655799Y-66657114D01*
X134462886Y-66464201D01*
X134236043Y-66312629D01*
X133983989Y-66208225D01*
X133716411Y-66155000D01*
X133443589Y-66155000D01*
X133176011Y-66208225D01*
X133022000Y-66272018D01*
X133022000Y-66259322D01*
X133025676Y-66221999D01*
X133022000Y-66184677D01*
X133022000Y-66184667D01*
X133011003Y-66073014D01*
X132967546Y-65929753D01*
X132955000Y-65906281D01*
X132955000Y-65857909D01*
X133077886Y-65775799D01*
X133270799Y-65582886D01*
X133422371Y-65356043D01*
X133526775Y-65103989D01*
X133580000Y-64836411D01*
X133633225Y-65103989D01*
X133737629Y-65356043D01*
X133889201Y-65582886D01*
X134082114Y-65775799D01*
X134308957Y-65927371D01*
X134561011Y-66031775D01*
X134828589Y-66085000D01*
X135101411Y-66085000D01*
X135368989Y-66031775D01*
X135621043Y-65927371D01*
X135743270Y-65845701D01*
X140520000Y-65845701D01*
X140520000Y-66394299D01*
X140627026Y-66932354D01*
X140836965Y-67439192D01*
X141141750Y-67895334D01*
X141529666Y-68283250D01*
X141985808Y-68588035D01*
X142492646Y-68797974D01*
X143030701Y-68905000D01*
X143579299Y-68905000D01*
X144117354Y-68797974D01*
X144624192Y-68588035D01*
X145080334Y-68283250D01*
X145468250Y-67895334D01*
X145773035Y-67439192D01*
X145982974Y-66932354D01*
X146090000Y-66394299D01*
X146090000Y-65845701D01*
X146045106Y-65620000D01*
X157261928Y-65620000D01*
X157274188Y-65744482D01*
X157310498Y-65864180D01*
X157369463Y-65974494D01*
X157448815Y-66071185D01*
X157545506Y-66150537D01*
X157655820Y-66209502D01*
X157775518Y-66245812D01*
X157900000Y-66258072D01*
X158464250Y-66255000D01*
X158623000Y-66096250D01*
X158623000Y-64897000D01*
X158877000Y-64897000D01*
X158877000Y-66096250D01*
X159035750Y-66255000D01*
X159600000Y-66258072D01*
X159724482Y-66245812D01*
X159844180Y-66209502D01*
X159954494Y-66150537D01*
X160051185Y-66071185D01*
X160130537Y-65974494D01*
X160189502Y-65864180D01*
X160213966Y-65783534D01*
X160289731Y-65867588D01*
X160523080Y-66041641D01*
X160785901Y-66166825D01*
X160933110Y-66211476D01*
X161163000Y-66090155D01*
X161163000Y-64897000D01*
X161417000Y-64897000D01*
X161417000Y-66090155D01*
X161646890Y-66211476D01*
X161794099Y-66166825D01*
X162056920Y-66041641D01*
X162290269Y-65867588D01*
X162485178Y-65651355D01*
X162560000Y-65525745D01*
X162634822Y-65651355D01*
X162829731Y-65867588D01*
X163063080Y-66041641D01*
X163325901Y-66166825D01*
X163473110Y-66211476D01*
X163703000Y-66090155D01*
X163703000Y-64897000D01*
X163957000Y-64897000D01*
X163957000Y-66090155D01*
X164186890Y-66211476D01*
X164334099Y-66166825D01*
X164596920Y-66041641D01*
X164830269Y-65867588D01*
X165025178Y-65651355D01*
X165100000Y-65525745D01*
X165174822Y-65651355D01*
X165369731Y-65867588D01*
X165603080Y-66041641D01*
X165865901Y-66166825D01*
X166013110Y-66211476D01*
X166243000Y-66090155D01*
X166243000Y-64897000D01*
X163957000Y-64897000D01*
X163703000Y-64897000D01*
X161417000Y-64897000D01*
X161163000Y-64897000D01*
X158877000Y-64897000D01*
X158623000Y-64897000D01*
X157423750Y-64897000D01*
X157265000Y-65055750D01*
X157261928Y-65620000D01*
X146045106Y-65620000D01*
X145982974Y-65307646D01*
X145773035Y-64800808D01*
X145468250Y-64344666D01*
X145080334Y-63956750D01*
X144624192Y-63651965D01*
X144117354Y-63442026D01*
X143579299Y-63335000D01*
X143030701Y-63335000D01*
X142492646Y-63442026D01*
X141985808Y-63651965D01*
X141529666Y-63956750D01*
X141141750Y-64344666D01*
X140836965Y-64800808D01*
X140627026Y-65307646D01*
X140520000Y-65845701D01*
X135743270Y-65845701D01*
X135847886Y-65775799D01*
X136040799Y-65582886D01*
X136192371Y-65356043D01*
X136296775Y-65103989D01*
X136350000Y-64836411D01*
X136350000Y-64563589D01*
X136296775Y-64296011D01*
X136192371Y-64043957D01*
X136040799Y-63817114D01*
X135847886Y-63624201D01*
X135621043Y-63472629D01*
X135370771Y-63368963D01*
X135369003Y-63351014D01*
X135325546Y-63207753D01*
X135254974Y-63075724D01*
X135160001Y-62959999D01*
X135044276Y-62865026D01*
X134912247Y-62794454D01*
X134768986Y-62750997D01*
X134657333Y-62740000D01*
X134620000Y-62736323D01*
X134582667Y-62740000D01*
X123227333Y-62740000D01*
X123190000Y-62736323D01*
X123152667Y-62740000D01*
X123041014Y-62750997D01*
X122897753Y-62794454D01*
X122765724Y-62865026D01*
X122649999Y-62959999D01*
X122555026Y-63075724D01*
X122484454Y-63207753D01*
X122440997Y-63351014D01*
X122426323Y-63500000D01*
X119267316Y-63500000D01*
X119127354Y-63442026D01*
X118589299Y-63335000D01*
X118040701Y-63335000D01*
X117502646Y-63442026D01*
X116995808Y-63651965D01*
X116539666Y-63956750D01*
X116151750Y-64344666D01*
X115846965Y-64800808D01*
X115697000Y-65162856D01*
X115697000Y-62009872D01*
X148895000Y-62009872D01*
X148895000Y-62450128D01*
X148980890Y-62881925D01*
X149149369Y-63288669D01*
X149393962Y-63654729D01*
X149705271Y-63966038D01*
X150071331Y-64210631D01*
X150478075Y-64379110D01*
X150909872Y-64465000D01*
X151350128Y-64465000D01*
X151781925Y-64379110D01*
X152188669Y-64210631D01*
X152554729Y-63966038D01*
X152866038Y-63654729D01*
X153110631Y-63288669D01*
X153279110Y-62881925D01*
X153365000Y-62450128D01*
X153365000Y-62009872D01*
X153279110Y-61578075D01*
X153110631Y-61171331D01*
X152866038Y-60805271D01*
X152554729Y-60493962D01*
X152188669Y-60249369D01*
X151781925Y-60080890D01*
X151350128Y-59995000D01*
X150909872Y-59995000D01*
X150478075Y-60080890D01*
X150071331Y-60249369D01*
X149705271Y-60493962D01*
X149393962Y-60805271D01*
X149149369Y-61171331D01*
X148980890Y-61578075D01*
X148895000Y-62009872D01*
X115697000Y-62009872D01*
X115697000Y-57277000D01*
X186563000Y-57277000D01*
X186563000Y-90043000D01*
G37*
X186563000Y-90043000D02*
X115697000Y-90043000D01*
X115697000Y-82329872D01*
X117145000Y-82329872D01*
X117145000Y-82770128D01*
X117230890Y-83201925D01*
X117399369Y-83608669D01*
X117643962Y-83974729D01*
X117955271Y-84286038D01*
X118321331Y-84530631D01*
X118728075Y-84699110D01*
X119159872Y-84785000D01*
X119600128Y-84785000D01*
X120031925Y-84699110D01*
X120438669Y-84530631D01*
X120804729Y-84286038D01*
X121116038Y-83974729D01*
X121360631Y-83608669D01*
X121409337Y-83491080D01*
X128032001Y-83491080D01*
X128032001Y-84088922D01*
X128148634Y-84675278D01*
X128377419Y-85227613D01*
X128709563Y-85724701D01*
X129132301Y-86147439D01*
X129629389Y-86479583D01*
X130181724Y-86708368D01*
X130768080Y-86825001D01*
X131365922Y-86825001D01*
X131952278Y-86708368D01*
X132504613Y-86479583D01*
X133001701Y-86147439D01*
X133424439Y-85724701D01*
X133756583Y-85227613D01*
X133985368Y-84675278D01*
X134102001Y-84088922D01*
X134102001Y-83491080D01*
X133985368Y-82904724D01*
X133756583Y-82352389D01*
X133424439Y-81855301D01*
X133001701Y-81432563D01*
X132504613Y-81100419D01*
X131952278Y-80871634D01*
X131365922Y-80755001D01*
X130768080Y-80755001D01*
X130181724Y-80871634D01*
X129629389Y-81100419D01*
X129132301Y-81432563D01*
X128709563Y-81855301D01*
X128377419Y-82352389D01*
X128148634Y-82904724D01*
X128032001Y-83491080D01*
X121409337Y-83491080D01*
X121529110Y-83201925D01*
X121615000Y-82770128D01*
X121615000Y-82329872D01*
X121529110Y-81898075D01*
X121360631Y-81491331D01*
X121116038Y-81125271D01*
X120804729Y-80813962D01*
X120438669Y-80569369D01*
X120031925Y-80400890D01*
X119600128Y-80315000D01*
X119159872Y-80315000D01*
X118728075Y-80400890D01*
X118321331Y-80569369D01*
X117955271Y-80813962D01*
X117643962Y-81125271D01*
X117399369Y-81491331D01*
X117230890Y-81898075D01*
X117145000Y-82329872D01*
X115697000Y-82329872D01*
X115697000Y-67077144D01*
X115846965Y-67439192D01*
X116151750Y-67895334D01*
X116539666Y-68283250D01*
X116995808Y-68588035D01*
X117502646Y-68797974D01*
X118040701Y-68905000D01*
X118589299Y-68905000D01*
X119127354Y-68797974D01*
X119634192Y-68588035D01*
X120090334Y-68283250D01*
X120478250Y-67895334D01*
X120783035Y-67439192D01*
X120992974Y-66932354D01*
X121100000Y-66394299D01*
X121100000Y-65845701D01*
X120992974Y-65307646D01*
X120783035Y-64800808D01*
X120478250Y-64344666D01*
X120090334Y-63956750D01*
X119634192Y-63651965D01*
X119267316Y-63500000D01*
X122426323Y-63500000D01*
X122430001Y-63537343D01*
X122430000Y-71082667D01*
X122426323Y-71120000D01*
X122440997Y-71268986D01*
X122484454Y-71412247D01*
X122555026Y-71544276D01*
X122626200Y-71631002D01*
X122649999Y-71660001D01*
X122765724Y-71754974D01*
X122897753Y-71825546D01*
X123041014Y-71869003D01*
X123190000Y-71883677D01*
X123227333Y-71880000D01*
X126713197Y-71880000D01*
X137189975Y-82356778D01*
X137174380Y-82363238D01*
X136910686Y-82539432D01*
X136686432Y-82763686D01*
X136510238Y-83027380D01*
X136388872Y-83320381D01*
X136327001Y-83631430D01*
X136327001Y-83948572D01*
X136388872Y-84259621D01*
X136510238Y-84552622D01*
X136686432Y-84816316D01*
X136910686Y-85040570D01*
X137174380Y-85216764D01*
X137467381Y-85338130D01*
X137768409Y-85398008D01*
X137655238Y-85567380D01*
X137533872Y-85860381D01*
X137472001Y-86171430D01*
X137472001Y-86488572D01*
X137533872Y-86799621D01*
X137655238Y-87092622D01*
X137831432Y-87356316D01*
X138055686Y-87580570D01*
X138319380Y-87756764D01*
X138612381Y-87878130D01*
X138923430Y-87940001D01*
X139240572Y-87940001D01*
X139551621Y-87878130D01*
X139844622Y-87756764D01*
X140108316Y-87580570D01*
X140227001Y-87461885D01*
X140345686Y-87580570D01*
X140609380Y-87756764D01*
X140902381Y-87878130D01*
X141213430Y-87940001D01*
X141530572Y-87940001D01*
X141841621Y-87878130D01*
X142134622Y-87756764D01*
X142398316Y-87580570D01*
X142517001Y-87461885D01*
X142635686Y-87580570D01*
X142899380Y-87756764D01*
X143192381Y-87878130D01*
X143503430Y-87940001D01*
X143820572Y-87940001D01*
X144131621Y-87878130D01*
X144424622Y-87756764D01*
X144688316Y-87580570D01*
X144807001Y-87461885D01*
X144925686Y-87580570D01*
X145189380Y-87756764D01*
X145482381Y-87878130D01*
X145793430Y-87940001D01*
X146110572Y-87940001D01*
X146421621Y-87878130D01*
X146714622Y-87756764D01*
X146978316Y-87580570D01*
X147097001Y-87461885D01*
X147215686Y-87580570D01*
X147479380Y-87756764D01*
X147772381Y-87878130D01*
X148083430Y-87940001D01*
X148400572Y-87940001D01*
X148711621Y-87878130D01*
X149004622Y-87756764D01*
X149268316Y-87580570D01*
X149387001Y-87461885D01*
X149505686Y-87580570D01*
X149769380Y-87756764D01*
X150062381Y-87878130D01*
X150373430Y-87940001D01*
X150690572Y-87940001D01*
X151001621Y-87878130D01*
X151294622Y-87756764D01*
X151558316Y-87580570D01*
X151677001Y-87461885D01*
X151795686Y-87580570D01*
X152059380Y-87756764D01*
X152352381Y-87878130D01*
X152663430Y-87940001D01*
X152980572Y-87940001D01*
X153291621Y-87878130D01*
X153584622Y-87756764D01*
X153848316Y-87580570D01*
X153967001Y-87461885D01*
X154085686Y-87580570D01*
X154349380Y-87756764D01*
X154642381Y-87878130D01*
X154953430Y-87940001D01*
X155270572Y-87940001D01*
X155581621Y-87878130D01*
X155874622Y-87756764D01*
X156138316Y-87580570D01*
X156362570Y-87356316D01*
X156538764Y-87092622D01*
X156660130Y-86799621D01*
X156722001Y-86488572D01*
X156722001Y-86171430D01*
X156660130Y-85860381D01*
X156655831Y-85850002D01*
X156843680Y-85850002D01*
X156881002Y-85853678D01*
X156918324Y-85850002D01*
X156918335Y-85850002D01*
X157029988Y-85839005D01*
X157173249Y-85795548D01*
X157305278Y-85724976D01*
X157421003Y-85630003D01*
X157444806Y-85600999D01*
X159554725Y-83491080D01*
X161357001Y-83491080D01*
X161357001Y-84088922D01*
X161473634Y-84675278D01*
X161702419Y-85227613D01*
X162034563Y-85724701D01*
X162457301Y-86147439D01*
X162954389Y-86479583D01*
X163506724Y-86708368D01*
X164093080Y-86825001D01*
X164690922Y-86825001D01*
X165277278Y-86708368D01*
X165829613Y-86479583D01*
X166326701Y-86147439D01*
X166749439Y-85724701D01*
X167081583Y-85227613D01*
X167310368Y-84675278D01*
X167427001Y-84088922D01*
X167427001Y-83491080D01*
X167310368Y-82904724D01*
X167081583Y-82352389D01*
X166749439Y-81855301D01*
X166326701Y-81432563D01*
X165829613Y-81100419D01*
X165731725Y-81059872D01*
X175565000Y-81059872D01*
X175565000Y-81500128D01*
X175650890Y-81931925D01*
X175819369Y-82338669D01*
X176063962Y-82704729D01*
X176375271Y-83016038D01*
X176741331Y-83260631D01*
X177148075Y-83429110D01*
X177579872Y-83515000D01*
X178020128Y-83515000D01*
X178451925Y-83429110D01*
X178858669Y-83260631D01*
X179224729Y-83016038D01*
X179536038Y-82704729D01*
X179780631Y-82338669D01*
X179949110Y-81931925D01*
X180035000Y-81500128D01*
X180035000Y-81059872D01*
X179949110Y-80628075D01*
X179780631Y-80221331D01*
X179536038Y-79855271D01*
X179224729Y-79543962D01*
X178858669Y-79299369D01*
X178451925Y-79130890D01*
X178020128Y-79045000D01*
X177579872Y-79045000D01*
X177148075Y-79130890D01*
X176741331Y-79299369D01*
X176375271Y-79543962D01*
X176063962Y-79855271D01*
X175819369Y-80221331D01*
X175650890Y-80628075D01*
X175565000Y-81059872D01*
X165731725Y-81059872D01*
X165277278Y-80871634D01*
X164690922Y-80755001D01*
X164093080Y-80755001D01*
X163506724Y-80871634D01*
X162954389Y-81100419D01*
X162457301Y-81432563D01*
X162034563Y-81855301D01*
X161702419Y-82352389D01*
X161473634Y-82904724D01*
X161357001Y-83491080D01*
X159554725Y-83491080D01*
X175676005Y-67369801D01*
X175705002Y-67346004D01*
X175799975Y-67230279D01*
X175870547Y-67098250D01*
X175914004Y-66954989D01*
X175925001Y-66843336D01*
X175925001Y-66843327D01*
X175928677Y-66806004D01*
X175925001Y-66768681D01*
X175925001Y-66126753D01*
X176096842Y-66197932D01*
X176383740Y-66255000D01*
X176676260Y-66255000D01*
X176963158Y-66197932D01*
X177233411Y-66085990D01*
X177476632Y-65923475D01*
X177683475Y-65716632D01*
X177800000Y-65542240D01*
X177916525Y-65716632D01*
X178123368Y-65923475D01*
X178366589Y-66085990D01*
X178636842Y-66197932D01*
X178923740Y-66255000D01*
X179216260Y-66255000D01*
X179503158Y-66197932D01*
X179773411Y-66085990D01*
X180016632Y-65923475D01*
X180223475Y-65716632D01*
X180340000Y-65542240D01*
X180456525Y-65716632D01*
X180663368Y-65923475D01*
X180906589Y-66085990D01*
X181176842Y-66197932D01*
X181463740Y-66255000D01*
X181756260Y-66255000D01*
X182043158Y-66197932D01*
X182313411Y-66085990D01*
X182556632Y-65923475D01*
X182763475Y-65716632D01*
X182925990Y-65473411D01*
X183037932Y-65203158D01*
X183095000Y-64916260D01*
X183095000Y-64623740D01*
X183037932Y-64336842D01*
X182925990Y-64066589D01*
X182763475Y-63823368D01*
X182556632Y-63616525D01*
X182382240Y-63500000D01*
X182556632Y-63383475D01*
X182763475Y-63176632D01*
X182925990Y-62933411D01*
X183037932Y-62663158D01*
X183095000Y-62376260D01*
X183095000Y-62083740D01*
X183037932Y-61796842D01*
X182925990Y-61526589D01*
X182763475Y-61283368D01*
X182556632Y-61076525D01*
X182313411Y-60914010D01*
X182043158Y-60802068D01*
X181756260Y-60745000D01*
X181463740Y-60745000D01*
X181176842Y-60802068D01*
X180906589Y-60914010D01*
X180663368Y-61076525D01*
X180456525Y-61283368D01*
X180340000Y-61457760D01*
X180223475Y-61283368D01*
X180016632Y-61076525D01*
X179773411Y-60914010D01*
X179503158Y-60802068D01*
X179216260Y-60745000D01*
X178923740Y-60745000D01*
X178636842Y-60802068D01*
X178366589Y-60914010D01*
X178123368Y-61076525D01*
X177916525Y-61283368D01*
X177800000Y-61457760D01*
X177683475Y-61283368D01*
X177476632Y-61076525D01*
X177233411Y-60914010D01*
X176963158Y-60802068D01*
X176676260Y-60745000D01*
X176383740Y-60745000D01*
X176096842Y-60802068D01*
X175826589Y-60914010D01*
X175583368Y-61076525D01*
X175376525Y-61283368D01*
X175260000Y-61457760D01*
X175143475Y-61283368D01*
X174936632Y-61076525D01*
X174693411Y-60914010D01*
X174423158Y-60802068D01*
X174136260Y-60745000D01*
X173843740Y-60745000D01*
X173556842Y-60802068D01*
X173286589Y-60914010D01*
X173083509Y-61049704D01*
X172577804Y-60544001D01*
X172554002Y-60514998D01*
X172438277Y-60420025D01*
X172306248Y-60349453D01*
X172162987Y-60305996D01*
X172051334Y-60294999D01*
X172051323Y-60294999D01*
X172014001Y-60291323D01*
X171976679Y-60294999D01*
X165042323Y-60294999D01*
X165005000Y-60291323D01*
X164967677Y-60294999D01*
X164967668Y-60294999D01*
X164856015Y-60305996D01*
X164712754Y-60349453D01*
X164580725Y-60420025D01*
X164465000Y-60514998D01*
X164441202Y-60543996D01*
X164196408Y-60788790D01*
X163976260Y-60745000D01*
X163683740Y-60745000D01*
X163396842Y-60802068D01*
X163126589Y-60914010D01*
X162883368Y-61076525D01*
X162676525Y-61283368D01*
X162560000Y-61457760D01*
X162443475Y-61283368D01*
X162236632Y-61076525D01*
X161993411Y-60914010D01*
X161723158Y-60802068D01*
X161436260Y-60745000D01*
X161143740Y-60745000D01*
X160856842Y-60802068D01*
X160586589Y-60914010D01*
X160343368Y-61076525D01*
X160136525Y-61283368D01*
X160020000Y-61457760D01*
X159903475Y-61283368D01*
X159696632Y-61076525D01*
X159453411Y-60914010D01*
X159183158Y-60802068D01*
X158896260Y-60745000D01*
X158603740Y-60745000D01*
X158316842Y-60802068D01*
X158046589Y-60914010D01*
X157803368Y-61076525D01*
X157596525Y-61283368D01*
X157434010Y-61526589D01*
X157322068Y-61796842D01*
X157265000Y-62083740D01*
X157265000Y-62376260D01*
X157322068Y-62663158D01*
X157434010Y-62933411D01*
X157596525Y-63176632D01*
X157728380Y-63308487D01*
X157655820Y-63330498D01*
X157545506Y-63389463D01*
X157448815Y-63468815D01*
X157369463Y-63565506D01*
X157310498Y-63675820D01*
X157274188Y-63795518D01*
X157261928Y-63920000D01*
X157265000Y-64484250D01*
X157423750Y-64643000D01*
X158623000Y-64643000D01*
X158623000Y-64623000D01*
X158877000Y-64623000D01*
X158877000Y-64643000D01*
X161163000Y-64643000D01*
X161163000Y-64623000D01*
X161417000Y-64623000D01*
X161417000Y-64643000D01*
X163703000Y-64643000D01*
X163703000Y-64623000D01*
X163957000Y-64623000D01*
X163957000Y-64643000D01*
X166243000Y-64643000D01*
X166243000Y-64623000D01*
X166497000Y-64623000D01*
X166497000Y-64643000D01*
X166517000Y-64643000D01*
X166517000Y-64897000D01*
X166497000Y-64897000D01*
X166497000Y-66090155D01*
X166726890Y-66211476D01*
X166874099Y-66166825D01*
X167136920Y-66041641D01*
X167370269Y-65867588D01*
X167565178Y-65651355D01*
X167634805Y-65534466D01*
X167756525Y-65716632D01*
X167963368Y-65923475D01*
X168206589Y-66085990D01*
X168476842Y-66197932D01*
X168763740Y-66255000D01*
X169056260Y-66255000D01*
X169343158Y-66197932D01*
X169613411Y-66085990D01*
X169856632Y-65923475D01*
X170063475Y-65716632D01*
X170180000Y-65542240D01*
X170296525Y-65716632D01*
X170497546Y-65917653D01*
X157225199Y-79190000D01*
X149579324Y-79190000D01*
X149542001Y-79186324D01*
X149504678Y-79190000D01*
X149504669Y-79190000D01*
X149393016Y-79200997D01*
X149249755Y-79244454D01*
X149117725Y-79315026D01*
X149034085Y-79383668D01*
X149002001Y-79409999D01*
X148978203Y-79438997D01*
X148714242Y-79702958D01*
X148711621Y-79701872D01*
X148400572Y-79640001D01*
X148083430Y-79640001D01*
X147772381Y-79701872D01*
X147479380Y-79823238D01*
X147215686Y-79999432D01*
X146991432Y-80223686D01*
X146815238Y-80487380D01*
X146759384Y-80622223D01*
X146131606Y-81250001D01*
X146145749Y-81264144D01*
X145966144Y-81443749D01*
X145952001Y-81429606D01*
X145937859Y-81443749D01*
X145758254Y-81264144D01*
X145772396Y-81250001D01*
X145144618Y-80622223D01*
X145088764Y-80487380D01*
X144912570Y-80223686D01*
X144821301Y-80132417D01*
X145014022Y-80132417D01*
X145952001Y-81070396D01*
X146889980Y-80132417D01*
X146797235Y-79870572D01*
X146511881Y-79732181D01*
X146205011Y-79652118D01*
X145888417Y-79633461D01*
X145574268Y-79676927D01*
X145274634Y-79780845D01*
X145106767Y-79870572D01*
X145014022Y-80132417D01*
X144821301Y-80132417D01*
X144688316Y-79999432D01*
X144424622Y-79823238D01*
X144131621Y-79701872D01*
X143820572Y-79640001D01*
X143503430Y-79640001D01*
X143192381Y-79701872D01*
X143189760Y-79702958D01*
X133022000Y-69535199D01*
X133022000Y-68807982D01*
X133176011Y-68871775D01*
X133443589Y-68925000D01*
X133716411Y-68925000D01*
X133983989Y-68871775D01*
X134236043Y-68767371D01*
X134462886Y-68615799D01*
X134655799Y-68422886D01*
X134807371Y-68196043D01*
X134911775Y-67943989D01*
X134965000Y-67676411D01*
X135018225Y-67943989D01*
X135122629Y-68196043D01*
X135274201Y-68422886D01*
X135467114Y-68615799D01*
X135693957Y-68767371D01*
X135946011Y-68871775D01*
X136213589Y-68925000D01*
X136486411Y-68925000D01*
X136753989Y-68871775D01*
X137006043Y-68767371D01*
X137232886Y-68615799D01*
X137425799Y-68422886D01*
X137577371Y-68196043D01*
X137681775Y-67943989D01*
X137735000Y-67676411D01*
X137735000Y-67403589D01*
X137681775Y-67136011D01*
X137577371Y-66883957D01*
X137425799Y-66657114D01*
X137232886Y-66464201D01*
X137006043Y-66312629D01*
X136753989Y-66208225D01*
X136486411Y-66155000D01*
X136213589Y-66155000D01*
X135946011Y-66208225D01*
X135693957Y-66312629D01*
X135467114Y-66464201D01*
X135274201Y-66657114D01*
X135122629Y-66883957D01*
X135018225Y-67136011D01*
X134965000Y-67403589D01*
X134911775Y-67136011D01*
X134807371Y-66883957D01*
X134655799Y-66657114D01*
X134462886Y-66464201D01*
X134236043Y-66312629D01*
X133983989Y-66208225D01*
X133716411Y-66155000D01*
X133443589Y-66155000D01*
X133176011Y-66208225D01*
X133022000Y-66272018D01*
X133022000Y-66259322D01*
X133025676Y-66221999D01*
X133022000Y-66184677D01*
X133022000Y-66184667D01*
X133011003Y-66073014D01*
X132967546Y-65929753D01*
X132955000Y-65906281D01*
X132955000Y-65857909D01*
X133077886Y-65775799D01*
X133270799Y-65582886D01*
X133422371Y-65356043D01*
X133526775Y-65103989D01*
X133580000Y-64836411D01*
X133633225Y-65103989D01*
X133737629Y-65356043D01*
X133889201Y-65582886D01*
X134082114Y-65775799D01*
X134308957Y-65927371D01*
X134561011Y-66031775D01*
X134828589Y-66085000D01*
X135101411Y-66085000D01*
X135368989Y-66031775D01*
X135621043Y-65927371D01*
X135743270Y-65845701D01*
X140520000Y-65845701D01*
X140520000Y-66394299D01*
X140627026Y-66932354D01*
X140836965Y-67439192D01*
X141141750Y-67895334D01*
X141529666Y-68283250D01*
X141985808Y-68588035D01*
X142492646Y-68797974D01*
X143030701Y-68905000D01*
X143579299Y-68905000D01*
X144117354Y-68797974D01*
X144624192Y-68588035D01*
X145080334Y-68283250D01*
X145468250Y-67895334D01*
X145773035Y-67439192D01*
X145982974Y-66932354D01*
X146090000Y-66394299D01*
X146090000Y-65845701D01*
X146045106Y-65620000D01*
X157261928Y-65620000D01*
X157274188Y-65744482D01*
X157310498Y-65864180D01*
X157369463Y-65974494D01*
X157448815Y-66071185D01*
X157545506Y-66150537D01*
X157655820Y-66209502D01*
X157775518Y-66245812D01*
X157900000Y-66258072D01*
X158464250Y-66255000D01*
X158623000Y-66096250D01*
X158623000Y-64897000D01*
X158877000Y-64897000D01*
X158877000Y-66096250D01*
X159035750Y-66255000D01*
X159600000Y-66258072D01*
X159724482Y-66245812D01*
X159844180Y-66209502D01*
X159954494Y-66150537D01*
X160051185Y-66071185D01*
X160130537Y-65974494D01*
X160189502Y-65864180D01*
X160213966Y-65783534D01*
X160289731Y-65867588D01*
X160523080Y-66041641D01*
X160785901Y-66166825D01*
X160933110Y-66211476D01*
X161163000Y-66090155D01*
X161163000Y-64897000D01*
X161417000Y-64897000D01*
X161417000Y-66090155D01*
X161646890Y-66211476D01*
X161794099Y-66166825D01*
X162056920Y-66041641D01*
X162290269Y-65867588D01*
X162485178Y-65651355D01*
X162560000Y-65525745D01*
X162634822Y-65651355D01*
X162829731Y-65867588D01*
X163063080Y-66041641D01*
X163325901Y-66166825D01*
X163473110Y-66211476D01*
X163703000Y-66090155D01*
X163703000Y-64897000D01*
X163957000Y-64897000D01*
X163957000Y-66090155D01*
X164186890Y-66211476D01*
X164334099Y-66166825D01*
X164596920Y-66041641D01*
X164830269Y-65867588D01*
X165025178Y-65651355D01*
X165100000Y-65525745D01*
X165174822Y-65651355D01*
X165369731Y-65867588D01*
X165603080Y-66041641D01*
X165865901Y-66166825D01*
X166013110Y-66211476D01*
X166243000Y-66090155D01*
X166243000Y-64897000D01*
X163957000Y-64897000D01*
X163703000Y-64897000D01*
X161417000Y-64897000D01*
X161163000Y-64897000D01*
X158877000Y-64897000D01*
X158623000Y-64897000D01*
X157423750Y-64897000D01*
X157265000Y-65055750D01*
X157261928Y-65620000D01*
X146045106Y-65620000D01*
X145982974Y-65307646D01*
X145773035Y-64800808D01*
X145468250Y-64344666D01*
X145080334Y-63956750D01*
X144624192Y-63651965D01*
X144117354Y-63442026D01*
X143579299Y-63335000D01*
X143030701Y-63335000D01*
X142492646Y-63442026D01*
X141985808Y-63651965D01*
X141529666Y-63956750D01*
X141141750Y-64344666D01*
X140836965Y-64800808D01*
X140627026Y-65307646D01*
X140520000Y-65845701D01*
X135743270Y-65845701D01*
X135847886Y-65775799D01*
X136040799Y-65582886D01*
X136192371Y-65356043D01*
X136296775Y-65103989D01*
X136350000Y-64836411D01*
X136350000Y-64563589D01*
X136296775Y-64296011D01*
X136192371Y-64043957D01*
X136040799Y-63817114D01*
X135847886Y-63624201D01*
X135621043Y-63472629D01*
X135370771Y-63368963D01*
X135369003Y-63351014D01*
X135325546Y-63207753D01*
X135254974Y-63075724D01*
X135160001Y-62959999D01*
X135044276Y-62865026D01*
X134912247Y-62794454D01*
X134768986Y-62750997D01*
X134657333Y-62740000D01*
X134620000Y-62736323D01*
X134582667Y-62740000D01*
X123227333Y-62740000D01*
X123190000Y-62736323D01*
X123152667Y-62740000D01*
X123041014Y-62750997D01*
X122897753Y-62794454D01*
X122765724Y-62865026D01*
X122649999Y-62959999D01*
X122555026Y-63075724D01*
X122484454Y-63207753D01*
X122440997Y-63351014D01*
X122426323Y-63500000D01*
X119267316Y-63500000D01*
X119127354Y-63442026D01*
X118589299Y-63335000D01*
X118040701Y-63335000D01*
X117502646Y-63442026D01*
X116995808Y-63651965D01*
X116539666Y-63956750D01*
X116151750Y-64344666D01*
X115846965Y-64800808D01*
X115697000Y-65162856D01*
X115697000Y-62009872D01*
X148895000Y-62009872D01*
X148895000Y-62450128D01*
X148980890Y-62881925D01*
X149149369Y-63288669D01*
X149393962Y-63654729D01*
X149705271Y-63966038D01*
X150071331Y-64210631D01*
X150478075Y-64379110D01*
X150909872Y-64465000D01*
X151350128Y-64465000D01*
X151781925Y-64379110D01*
X152188669Y-64210631D01*
X152554729Y-63966038D01*
X152866038Y-63654729D01*
X153110631Y-63288669D01*
X153279110Y-62881925D01*
X153365000Y-62450128D01*
X153365000Y-62009872D01*
X153279110Y-61578075D01*
X153110631Y-61171331D01*
X152866038Y-60805271D01*
X152554729Y-60493962D01*
X152188669Y-60249369D01*
X151781925Y-60080890D01*
X151350128Y-59995000D01*
X150909872Y-59995000D01*
X150478075Y-60080890D01*
X150071331Y-60249369D01*
X149705271Y-60493962D01*
X149393962Y-60805271D01*
X149149369Y-61171331D01*
X148980890Y-61578075D01*
X148895000Y-62009872D01*
X115697000Y-62009872D01*
X115697000Y-57277000D01*
X186563000Y-57277000D01*
X186563000Y-90043000D01*
G36*
X145000749Y-83775859D02*
G01*
X144986606Y-83790001D01*
X145000749Y-83804144D01*
X144821144Y-83983749D01*
X144807001Y-83969606D01*
X144792859Y-83983749D01*
X144613254Y-83804144D01*
X144627396Y-83790001D01*
X144613254Y-83775859D01*
X144792859Y-83596254D01*
X144807001Y-83610396D01*
X144821144Y-83596254D01*
X145000749Y-83775859D01*
G37*
X145000749Y-83775859D02*
X144986606Y-83790001D01*
X145000749Y-83804144D01*
X144821144Y-83983749D01*
X144807001Y-83969606D01*
X144792859Y-83983749D01*
X144613254Y-83804144D01*
X144627396Y-83790001D01*
X144613254Y-83775859D01*
X144792859Y-83596254D01*
X144807001Y-83610396D01*
X144821144Y-83596254D01*
X145000749Y-83775859D01*
G36*
X147290749Y-83775859D02*
G01*
X147276606Y-83790001D01*
X147290749Y-83804144D01*
X147111144Y-83983749D01*
X147097001Y-83969606D01*
X147082859Y-83983749D01*
X146903254Y-83804144D01*
X146917396Y-83790001D01*
X146903254Y-83775859D01*
X147082859Y-83596254D01*
X147097001Y-83610396D01*
X147111144Y-83596254D01*
X147290749Y-83775859D01*
G37*
X147290749Y-83775859D02*
X147276606Y-83790001D01*
X147290749Y-83804144D01*
X147111144Y-83983749D01*
X147097001Y-83969606D01*
X147082859Y-83983749D01*
X146903254Y-83804144D01*
X146917396Y-83790001D01*
X146903254Y-83775859D01*
X147082859Y-83596254D01*
X147097001Y-83610396D01*
X147111144Y-83596254D01*
X147290749Y-83775859D01*
G36*
X125323225Y-64296011D02*
G01*
X125270000Y-64563589D01*
X125270000Y-64836411D01*
X125323225Y-65103989D01*
X125427629Y-65356043D01*
X125579201Y-65582886D01*
X125772114Y-65775799D01*
X125998957Y-65927371D01*
X126251011Y-66031775D01*
X126518589Y-66085000D01*
X126791411Y-66085000D01*
X127058989Y-66031775D01*
X127311043Y-65927371D01*
X127537886Y-65775799D01*
X127730799Y-65582886D01*
X127882371Y-65356043D01*
X127986775Y-65103989D01*
X128040000Y-64836411D01*
X128093225Y-65103989D01*
X128197629Y-65356043D01*
X128349201Y-65582886D01*
X128542114Y-65775799D01*
X128768957Y-65927371D01*
X129021011Y-66031775D01*
X129288589Y-66085000D01*
X129561411Y-66085000D01*
X129828989Y-66031775D01*
X130081043Y-65927371D01*
X130307886Y-65775799D01*
X130500799Y-65582886D01*
X130652371Y-65356043D01*
X130756775Y-65103989D01*
X130810000Y-64836411D01*
X130863225Y-65103989D01*
X130967629Y-65356043D01*
X131119201Y-65582886D01*
X131312114Y-65775799D01*
X131435000Y-65857909D01*
X131435000Y-66117677D01*
X131431324Y-66155000D01*
X131435000Y-66192322D01*
X131435000Y-66192332D01*
X131445997Y-66303985D01*
X131447607Y-66309294D01*
X131274884Y-66228240D01*
X131010040Y-66162750D01*
X130737508Y-66150188D01*
X130467762Y-66191035D01*
X130211168Y-66283723D01*
X130098137Y-66344140D01*
X130032612Y-66583007D01*
X130810000Y-67360395D01*
X130824143Y-67346253D01*
X131003748Y-67525858D01*
X130989605Y-67540000D01*
X131003748Y-67554143D01*
X130824143Y-67733748D01*
X130810000Y-67719605D01*
X130032612Y-68496993D01*
X130098137Y-68735860D01*
X130345116Y-68851760D01*
X130609960Y-68917250D01*
X130882492Y-68929812D01*
X131152238Y-68888965D01*
X131408832Y-68796277D01*
X131502000Y-68746477D01*
X131502000Y-69812677D01*
X131498324Y-69850000D01*
X131502000Y-69887322D01*
X131502000Y-69887332D01*
X131512997Y-69998985D01*
X131556454Y-70142246D01*
X131627026Y-70274276D01*
X131666871Y-70322826D01*
X131721999Y-70390001D01*
X131751003Y-70413804D01*
X141011712Y-79674513D01*
X140994268Y-79676927D01*
X140694634Y-79780845D01*
X140526767Y-79870572D01*
X140434022Y-80132417D01*
X141372001Y-81070396D01*
X141386144Y-81056254D01*
X141565749Y-81235859D01*
X141551606Y-81250001D01*
X141565749Y-81264144D01*
X141386144Y-81443749D01*
X141372001Y-81429606D01*
X141357859Y-81443749D01*
X141178254Y-81264144D01*
X141192396Y-81250001D01*
X140564618Y-80622223D01*
X140508764Y-80487380D01*
X140332570Y-80223686D01*
X140108316Y-79999432D01*
X139844622Y-79823238D01*
X139551621Y-79701872D01*
X139240572Y-79640001D01*
X138923430Y-79640001D01*
X138612381Y-79701872D01*
X138609760Y-79702958D01*
X127813976Y-68907175D01*
X127903589Y-68925000D01*
X128176411Y-68925000D01*
X128443989Y-68871775D01*
X128696043Y-68767371D01*
X128922886Y-68615799D01*
X129115799Y-68422886D01*
X129267371Y-68196043D01*
X129371775Y-67943989D01*
X129425000Y-67676411D01*
X129425000Y-67644270D01*
X129461035Y-67882238D01*
X129553723Y-68138832D01*
X129614140Y-68251863D01*
X129853007Y-68317388D01*
X130630395Y-67540000D01*
X129853007Y-66762612D01*
X129614140Y-66828137D01*
X129498240Y-67075116D01*
X129432750Y-67339960D01*
X129425000Y-67508096D01*
X129425000Y-67403589D01*
X129371775Y-67136011D01*
X129267371Y-66883957D01*
X129115799Y-66657114D01*
X128922886Y-66464201D01*
X128696043Y-66312629D01*
X128443989Y-66208225D01*
X128176411Y-66155000D01*
X127903589Y-66155000D01*
X127636011Y-66208225D01*
X127383957Y-66312629D01*
X127157114Y-66464201D01*
X126964201Y-66657114D01*
X126812629Y-66883957D01*
X126708225Y-67136011D01*
X126655000Y-67403589D01*
X126601775Y-67136011D01*
X126497371Y-66883957D01*
X126345799Y-66657114D01*
X126152886Y-66464201D01*
X125926043Y-66312629D01*
X125673989Y-66208225D01*
X125406411Y-66155000D01*
X125133589Y-66155000D01*
X124866011Y-66208225D01*
X124613957Y-66312629D01*
X124387114Y-66464201D01*
X124194201Y-66657114D01*
X124042629Y-66883957D01*
X123950000Y-67107584D01*
X123950000Y-64260000D01*
X125338141Y-64260000D01*
X125323225Y-64296011D01*
G37*
X125323225Y-64296011D02*
X125270000Y-64563589D01*
X125270000Y-64836411D01*
X125323225Y-65103989D01*
X125427629Y-65356043D01*
X125579201Y-65582886D01*
X125772114Y-65775799D01*
X125998957Y-65927371D01*
X126251011Y-66031775D01*
X126518589Y-66085000D01*
X126791411Y-66085000D01*
X127058989Y-66031775D01*
X127311043Y-65927371D01*
X127537886Y-65775799D01*
X127730799Y-65582886D01*
X127882371Y-65356043D01*
X127986775Y-65103989D01*
X128040000Y-64836411D01*
X128093225Y-65103989D01*
X128197629Y-65356043D01*
X128349201Y-65582886D01*
X128542114Y-65775799D01*
X128768957Y-65927371D01*
X129021011Y-66031775D01*
X129288589Y-66085000D01*
X129561411Y-66085000D01*
X129828989Y-66031775D01*
X130081043Y-65927371D01*
X130307886Y-65775799D01*
X130500799Y-65582886D01*
X130652371Y-65356043D01*
X130756775Y-65103989D01*
X130810000Y-64836411D01*
X130863225Y-65103989D01*
X130967629Y-65356043D01*
X131119201Y-65582886D01*
X131312114Y-65775799D01*
X131435000Y-65857909D01*
X131435000Y-66117677D01*
X131431324Y-66155000D01*
X131435000Y-66192322D01*
X131435000Y-66192332D01*
X131445997Y-66303985D01*
X131447607Y-66309294D01*
X131274884Y-66228240D01*
X131010040Y-66162750D01*
X130737508Y-66150188D01*
X130467762Y-66191035D01*
X130211168Y-66283723D01*
X130098137Y-66344140D01*
X130032612Y-66583007D01*
X130810000Y-67360395D01*
X130824143Y-67346253D01*
X131003748Y-67525858D01*
X130989605Y-67540000D01*
X131003748Y-67554143D01*
X130824143Y-67733748D01*
X130810000Y-67719605D01*
X130032612Y-68496993D01*
X130098137Y-68735860D01*
X130345116Y-68851760D01*
X130609960Y-68917250D01*
X130882492Y-68929812D01*
X131152238Y-68888965D01*
X131408832Y-68796277D01*
X131502000Y-68746477D01*
X131502000Y-69812677D01*
X131498324Y-69850000D01*
X131502000Y-69887322D01*
X131502000Y-69887332D01*
X131512997Y-69998985D01*
X131556454Y-70142246D01*
X131627026Y-70274276D01*
X131666871Y-70322826D01*
X131721999Y-70390001D01*
X131751003Y-70413804D01*
X141011712Y-79674513D01*
X140994268Y-79676927D01*
X140694634Y-79780845D01*
X140526767Y-79870572D01*
X140434022Y-80132417D01*
X141372001Y-81070396D01*
X141386144Y-81056254D01*
X141565749Y-81235859D01*
X141551606Y-81250001D01*
X141565749Y-81264144D01*
X141386144Y-81443749D01*
X141372001Y-81429606D01*
X141357859Y-81443749D01*
X141178254Y-81264144D01*
X141192396Y-81250001D01*
X140564618Y-80622223D01*
X140508764Y-80487380D01*
X140332570Y-80223686D01*
X140108316Y-79999432D01*
X139844622Y-79823238D01*
X139551621Y-79701872D01*
X139240572Y-79640001D01*
X138923430Y-79640001D01*
X138612381Y-79701872D01*
X138609760Y-79702958D01*
X127813976Y-68907175D01*
X127903589Y-68925000D01*
X128176411Y-68925000D01*
X128443989Y-68871775D01*
X128696043Y-68767371D01*
X128922886Y-68615799D01*
X129115799Y-68422886D01*
X129267371Y-68196043D01*
X129371775Y-67943989D01*
X129425000Y-67676411D01*
X129425000Y-67644270D01*
X129461035Y-67882238D01*
X129553723Y-68138832D01*
X129614140Y-68251863D01*
X129853007Y-68317388D01*
X130630395Y-67540000D01*
X129853007Y-66762612D01*
X129614140Y-66828137D01*
X129498240Y-67075116D01*
X129432750Y-67339960D01*
X129425000Y-67508096D01*
X129425000Y-67403589D01*
X129371775Y-67136011D01*
X129267371Y-66883957D01*
X129115799Y-66657114D01*
X128922886Y-66464201D01*
X128696043Y-66312629D01*
X128443989Y-66208225D01*
X128176411Y-66155000D01*
X127903589Y-66155000D01*
X127636011Y-66208225D01*
X127383957Y-66312629D01*
X127157114Y-66464201D01*
X126964201Y-66657114D01*
X126812629Y-66883957D01*
X126708225Y-67136011D01*
X126655000Y-67403589D01*
X126601775Y-67136011D01*
X126497371Y-66883957D01*
X126345799Y-66657114D01*
X126152886Y-66464201D01*
X125926043Y-66312629D01*
X125673989Y-66208225D01*
X125406411Y-66155000D01*
X125133589Y-66155000D01*
X124866011Y-66208225D01*
X124613957Y-66312629D01*
X124387114Y-66464201D01*
X124194201Y-66657114D01*
X124042629Y-66883957D01*
X123950000Y-67107584D01*
X123950000Y-64260000D01*
X125338141Y-64260000D01*
X125323225Y-64296011D01*
%TD*%
M02*
