M48
INCH,TZ
T1C0.0394
T2C0.0512
T3C0.1201
T4C0.1260
%
G90
G05
T1
X49319Y-26591
X49864Y-25472
X50409Y-26591
X50955Y-25472
X51500Y-26591
X52045Y-25472
X52591Y-26591
X53136Y-25472
X53681Y-26591
X62500Y-24500
X62500Y-25500
X63500Y-24500
X63500Y-25500
X64500Y-24500
X64500Y-25500
X65500Y-24500
X65500Y-25500
X66500Y-24500
X66500Y-25500
X67500Y-24500
X67500Y-25500
X68500Y-24500
X68500Y-25500
X69500Y-24500
X69500Y-25500
X70500Y-24500
X70500Y-25500
X71500Y-24500
X71500Y-25500
T2
X54306Y-32988
X54757Y-31988
X54757Y-33988
X55207Y-32988
X55658Y-31988
X55658Y-33988
X56109Y-32988
X56560Y-31988
X56560Y-33988
X57011Y-32988
X57461Y-31988
X57461Y-33988
X57912Y-32988
X58363Y-31988
X58363Y-33988
X58814Y-32988
X59265Y-31988
X59265Y-33988
X59715Y-32988
X60166Y-31988
X60166Y-33988
X60617Y-32988
X61068Y-31988
X61068Y-33988
X61519Y-32988
X61969Y-31988
T3
X46581Y-26031
X56419Y-26031
T4
X51601Y-32988
X64721Y-32988
T0
M30
