%TF.GenerationSoftware,KiCad,Pcbnew,(5.1.6)-1*%
%TF.CreationDate,2020-07-21T19:36:40-05:00*%
%TF.ProjectId,AppleIIeCardYCable,4170706c-6549-4496-9543-617264594361,rev?*%
%TF.SameCoordinates,Original*%
%TF.FileFunction,Soldermask,Top*%
%TF.FilePolarity,Negative*%
%FSLAX46Y46*%
G04 Gerber Fmt 4.6, Leading zero omitted, Abs format (unit mm)*
G04 Created by KiCad (PCBNEW (5.1.6)-1) date 2020-07-21 19:36:40*
%MOMM*%
%LPD*%
G01*
G04 APERTURE LIST*
%ADD10C,2.050000*%
%ADD11C,4.900000*%
%ADD12C,3.300000*%
%ADD13C,1.600000*%
%ADD14C,4.400000*%
%ADD15O,1.800000X1.800000*%
%ADD16R,1.800000X1.800000*%
G04 APERTURE END LIST*
D10*
%TO.C,J1*%
X139082001Y-81250001D03*
X141372001Y-81250001D03*
X143662001Y-81250001D03*
X145952001Y-81250001D03*
X148242001Y-81250001D03*
X150532001Y-81250001D03*
X152822001Y-81250001D03*
X155112001Y-81250001D03*
X157402001Y-81250001D03*
X137937001Y-83790001D03*
X140227001Y-83790001D03*
X142517001Y-83790001D03*
X144807001Y-83790001D03*
X147097001Y-83790001D03*
X149387001Y-83790001D03*
X151677001Y-83790001D03*
X153967001Y-83790001D03*
X156257001Y-83790001D03*
X139082001Y-86330001D03*
X141372001Y-86330001D03*
X143662001Y-86330001D03*
X145952001Y-86330001D03*
X148242001Y-86330001D03*
X150532001Y-86330001D03*
X152822001Y-86330001D03*
X155112001Y-86330001D03*
D11*
X131067001Y-83790001D03*
X164392001Y-83790001D03*
%TD*%
D12*
%TO.C,H2*%
X119380000Y-82550000D03*
%TD*%
%TO.C,H3*%
X177800000Y-81280000D03*
%TD*%
%TO.C,H1*%
X151130000Y-62230000D03*
%TD*%
D13*
%TO.C,J2*%
X125270000Y-67540000D03*
X128040000Y-67540000D03*
X130810000Y-67540000D03*
X133580000Y-67540000D03*
X136350000Y-67540000D03*
X126655000Y-64700000D03*
X129425000Y-64700000D03*
X132195000Y-64700000D03*
X134965000Y-64700000D03*
D14*
X143305000Y-66120000D03*
X118315000Y-66120000D03*
%TD*%
D15*
%TO.C,J3*%
X181610000Y-62230000D03*
X181610000Y-64770000D03*
X179070000Y-62230000D03*
X179070000Y-64770000D03*
X176530000Y-62230000D03*
X176530000Y-64770000D03*
X173990000Y-62230000D03*
X173990000Y-64770000D03*
X171450000Y-62230000D03*
X171450000Y-64770000D03*
X168910000Y-62230000D03*
X168910000Y-64770000D03*
X166370000Y-62230000D03*
X166370000Y-64770000D03*
X163830000Y-62230000D03*
X163830000Y-64770000D03*
X161290000Y-62230000D03*
X161290000Y-64770000D03*
X158750000Y-62230000D03*
D16*
X158750000Y-64770000D03*
%TD*%
M02*
