%TF.GenerationSoftware,KiCad,Pcbnew,(5.1.6)-1*%
%TF.CreationDate,2020-07-21T19:36:40-05:00*%
%TF.ProjectId,AppleIIeCardYCable,4170706c-6549-4496-9543-617264594361,rev?*%
%TF.SameCoordinates,Original*%
%TF.FileFunction,Copper,L1,Top*%
%TF.FilePolarity,Positive*%
%FSLAX46Y46*%
G04 Gerber Fmt 4.6, Leading zero omitted, Abs format (unit mm)*
G04 Created by KiCad (PCBNEW (5.1.6)-1) date 2020-07-21 19:36:40*
%MOMM*%
%LPD*%
G01*
G04 APERTURE LIST*
%TA.AperFunction,ComponentPad*%
%ADD10C,1.950000*%
%TD*%
%TA.AperFunction,ComponentPad*%
%ADD11C,4.800000*%
%TD*%
%TA.AperFunction,ComponentPad*%
%ADD12C,1.500000*%
%TD*%
%TA.AperFunction,ComponentPad*%
%ADD13C,4.300000*%
%TD*%
%TA.AperFunction,ComponentPad*%
%ADD14O,1.700000X1.700000*%
%TD*%
%TA.AperFunction,ComponentPad*%
%ADD15R,1.700000X1.700000*%
%TD*%
%TA.AperFunction,Conductor*%
%ADD16C,0.250000*%
%TD*%
G04 APERTURE END LIST*
D10*
%TO.P,J1,1*%
%TO.N,Net-(J1-Pad1)*%
X139082001Y-81250001D03*
%TO.P,J1,2*%
%TO.N,GND*%
X141372001Y-81250001D03*
%TO.P,J1,3*%
%TO.N,Net-(J1-Pad3)*%
X143662001Y-81250001D03*
%TO.P,J1,4*%
%TO.N,GND*%
X145952001Y-81250001D03*
%TO.P,J1,5*%
%TO.N,+5V*%
X148242001Y-81250001D03*
%TO.P,J1,6*%
%TO.N,Net-(J1-Pad6)*%
X150532001Y-81250001D03*
%TO.P,J1,7*%
%TO.N,Net-(J1-Pad7)*%
X152822001Y-81250001D03*
%TO.P,J1,8*%
%TO.N,Net-(J1-Pad8)*%
X155112001Y-81250001D03*
%TO.P,J1,9*%
%TO.N,Net-(J1-Pad9)*%
X157402001Y-81250001D03*
%TO.P,J1,10*%
%TO.N,Net-(J1-Pad10)*%
X137937001Y-83790001D03*
%TO.P,J1,11*%
%TO.N,Net-(J1-Pad11)*%
X140227001Y-83790001D03*
%TO.P,J1,12*%
%TO.N,Net-(J1-Pad12)*%
X142517001Y-83790001D03*
%TO.P,J1,13*%
%TO.N,GND*%
X144807001Y-83790001D03*
%TO.P,J1,14*%
X147097001Y-83790001D03*
%TO.P,J1,15*%
%TO.N,Net-(J1-Pad15)*%
X149387001Y-83790001D03*
%TO.P,J1,16*%
%TO.N,Net-(J1-Pad16)*%
X151677001Y-83790001D03*
%TO.P,J1,17*%
%TO.N,Net-(J1-Pad17)*%
X153967001Y-83790001D03*
%TO.P,J1,18*%
%TO.N,Net-(J1-Pad18)*%
X156257001Y-83790001D03*
%TO.P,J1,19*%
%TO.N,Net-(J1-Pad19)*%
X139082001Y-86330001D03*
%TO.P,J1,20*%
%TO.N,Net-(J1-Pad20)*%
X141372001Y-86330001D03*
%TO.P,J1,21*%
%TO.N,Net-(J1-Pad21)*%
X143662001Y-86330001D03*
%TO.P,J1,22*%
%TO.N,Net-(J1-Pad22)*%
X145952001Y-86330001D03*
%TO.P,J1,23*%
%TO.N,Net-(J1-Pad23)*%
X148242001Y-86330001D03*
%TO.P,J1,24*%
%TO.N,Net-(J1-Pad24)*%
X150532001Y-86330001D03*
%TO.P,J1,25*%
%TO.N,Net-(J1-Pad25)*%
X152822001Y-86330001D03*
%TO.P,J1,26*%
%TO.N,Net-(J1-Pad26)*%
X155112001Y-86330001D03*
D11*
%TO.P,J1,MH1*%
%TO.N,Net-(J1-PadMH1)*%
X131067001Y-83790001D03*
%TO.P,J1,MH2*%
%TO.N,Net-(J1-PadMH2)*%
X164392001Y-83790001D03*
%TD*%
D12*
%TO.P,J2,1*%
%TO.N,Net-(J1-Pad1)*%
X125270000Y-67540000D03*
%TO.P,J2,2*%
%TO.N,Net-(J1-Pad21)*%
X128040000Y-67540000D03*
%TO.P,J2,3*%
%TO.N,GND*%
X130810000Y-67540000D03*
%TO.P,J2,4*%
%TO.N,Net-(J1-Pad20)*%
X133580000Y-67540000D03*
%TO.P,J2,5*%
%TO.N,Net-(J1-Pad12)*%
X136350000Y-67540000D03*
%TO.P,J2,6*%
%TO.N,Net-(J1-Pad19)*%
X126655000Y-64700000D03*
%TO.P,J2,7*%
%TO.N,Net-(J1-Pad10)*%
X129425000Y-64700000D03*
%TO.P,J2,8*%
%TO.N,Net-(J1-Pad3)*%
X132195000Y-64700000D03*
%TO.P,J2,9*%
%TO.N,Net-(J1-Pad11)*%
X134965000Y-64700000D03*
D13*
%TO.P,J2,10*%
%TO.N,N/C*%
X143305000Y-66120000D03*
%TO.P,J2,11*%
X118315000Y-66120000D03*
%TD*%
D14*
%TO.P,J3,20*%
%TO.N,Net-(J1-Pad15)*%
X181610000Y-62230000D03*
%TO.P,J3,19*%
%TO.N,Net-(J3-Pad19)*%
X181610000Y-64770000D03*
%TO.P,J3,18*%
%TO.N,Net-(J1-Pad18)*%
X179070000Y-62230000D03*
%TO.P,J3,17*%
%TO.N,Net-(J3-Pad17)*%
X179070000Y-64770000D03*
%TO.P,J3,16*%
%TO.N,Net-(J1-Pad9)*%
X176530000Y-62230000D03*
%TO.P,J3,15*%
%TO.N,Net-(J3-Pad15)*%
X176530000Y-64770000D03*
%TO.P,J3,14*%
%TO.N,Net-(J1-Pad26)*%
X173990000Y-62230000D03*
%TO.P,J3,13*%
%TO.N,Net-(J3-Pad13)*%
X173990000Y-64770000D03*
%TO.P,J3,12*%
%TO.N,Net-(J1-Pad17)*%
X171450000Y-62230000D03*
%TO.P,J3,11*%
%TO.N,+5V*%
X171450000Y-64770000D03*
%TO.P,J3,10*%
%TO.N,Net-(J1-Pad8)*%
X168910000Y-62230000D03*
%TO.P,J3,9*%
%TO.N,Net-(J3-Pad9)*%
X168910000Y-64770000D03*
%TO.P,J3,8*%
%TO.N,Net-(J1-Pad25)*%
X166370000Y-62230000D03*
%TO.P,J3,7*%
%TO.N,GND*%
X166370000Y-64770000D03*
%TO.P,J3,6*%
%TO.N,Net-(J1-Pad16)*%
X163830000Y-62230000D03*
%TO.P,J3,5*%
%TO.N,GND*%
X163830000Y-64770000D03*
%TO.P,J3,4*%
%TO.N,Net-(J1-Pad7)*%
X161290000Y-62230000D03*
%TO.P,J3,3*%
%TO.N,GND*%
X161290000Y-64770000D03*
%TO.P,J3,2*%
%TO.N,Net-(J1-Pad24)*%
X158750000Y-62230000D03*
D15*
%TO.P,J3,1*%
%TO.N,GND*%
X158750000Y-64770000D03*
%TD*%
D16*
%TO.N,Net-(J1-Pad7)*%
X152822001Y-81250001D02*
X152822001Y-74507999D01*
X152822001Y-74507999D02*
X158750000Y-68580000D01*
X159219002Y-68580000D02*
X160020000Y-67779002D01*
X158750000Y-68580000D02*
X159219002Y-68580000D01*
X160020000Y-63500000D02*
X161290000Y-62230000D01*
X160020000Y-67779002D02*
X160020000Y-63500000D01*
%TO.N,Net-(J1-Pad8)*%
X155112001Y-81250001D02*
X155112001Y-77297999D01*
X155112001Y-77297999D02*
X165100000Y-67310000D01*
X167734999Y-64205999D02*
X168440998Y-63500000D01*
X165100000Y-67310000D02*
X165569002Y-67310000D01*
X167734999Y-65144003D02*
X167734999Y-64205999D01*
X165569002Y-67310000D02*
X167734999Y-65144003D01*
X168440998Y-62699002D02*
X168910000Y-62230000D01*
X168440998Y-63500000D02*
X168440998Y-62699002D01*
%TO.N,Net-(J1-Pad9)*%
X157402001Y-81250001D02*
X160049999Y-81250001D01*
X160049999Y-81250001D02*
X175260000Y-66040000D01*
X175260000Y-63500000D02*
X176530000Y-62230000D01*
X175260000Y-66040000D02*
X175260000Y-63500000D01*
%TO.N,Net-(J1-Pad10)*%
X137937001Y-83790001D02*
X129540000Y-75393000D01*
X129540000Y-64815000D02*
X129425000Y-64700000D01*
X129540000Y-75393000D02*
X129540000Y-64815000D01*
%TO.N,Net-(J1-Pad12)*%
X136350000Y-80442002D02*
X136350000Y-67540000D01*
X138458000Y-82550002D02*
X136350000Y-80442002D01*
X139706002Y-82550002D02*
X138458000Y-82550002D01*
X140227001Y-82029003D02*
X139706002Y-82550002D01*
X141277002Y-82550002D02*
X140748000Y-82550002D01*
X140748000Y-82550002D02*
X140227001Y-82029003D01*
X142517001Y-83790001D02*
X141277002Y-82550002D01*
%TO.N,Net-(J1-Pad15)*%
X180340000Y-64300998D02*
X181140998Y-63500000D01*
X180340000Y-67779002D02*
X180340000Y-64300998D01*
X170335002Y-77784000D02*
X180340000Y-67779002D01*
X170335002Y-86515002D02*
X170335002Y-77784000D01*
X149387001Y-83790001D02*
X149752999Y-83790001D01*
X151053000Y-85090002D02*
X152137998Y-85090002D01*
X181140998Y-63500000D02*
X181140998Y-62699002D01*
X157066002Y-86360000D02*
X162928998Y-86360000D01*
X152137998Y-85090002D02*
X152198000Y-85030000D01*
X181140998Y-62699002D02*
X181610000Y-62230000D01*
X163084000Y-86515002D02*
X170335002Y-86515002D01*
X153967001Y-85550999D02*
X154488000Y-85030000D01*
X149752999Y-83790001D02*
X151053000Y-85090002D01*
X153446002Y-85030000D02*
X153967001Y-85550999D01*
X155736002Y-85030000D02*
X157066002Y-86360000D01*
X154488000Y-85030000D02*
X155736002Y-85030000D01*
X152198000Y-85030000D02*
X153446002Y-85030000D01*
X162928998Y-86360000D02*
X163084000Y-86515002D01*
%TO.N,Net-(J1-Pad18)*%
X177894999Y-63405001D02*
X179070000Y-62230000D01*
X177894999Y-66254001D02*
X177894999Y-63405001D01*
X160358999Y-83790001D02*
X177894999Y-66254001D01*
X156257001Y-83790001D02*
X160358999Y-83790001D01*
%TO.N,Net-(J1-Pad19)*%
X126585000Y-64770000D02*
X126655000Y-64700000D01*
X121920000Y-64770000D02*
X126585000Y-64770000D01*
X137703143Y-86330001D02*
X137518142Y-86515002D01*
X139082001Y-86330001D02*
X137703143Y-86330001D01*
X121920000Y-72390000D02*
X124460000Y-72390000D01*
X121920000Y-72390000D02*
X121920000Y-64770000D01*
X124460000Y-72390000D02*
X124460000Y-74930000D01*
X124460000Y-74930000D02*
X126844998Y-77314998D01*
X126844998Y-77314998D02*
X126844998Y-86515002D01*
X137518142Y-86515002D02*
X126844998Y-86515002D01*
%TO.N,Net-(J1-Pad20)*%
X141372001Y-86330001D02*
X140072000Y-87630002D01*
X120790001Y-63359999D02*
X120930002Y-63500000D01*
X132586002Y-63500000D02*
X133350000Y-64263998D01*
X120930002Y-63500000D02*
X132586002Y-63500000D01*
X133580000Y-66821002D02*
X133580000Y-67540000D01*
X133350000Y-66591002D02*
X133580000Y-66821002D01*
X133350000Y-64263998D02*
X133350000Y-66591002D01*
X120790001Y-73800001D02*
X122060001Y-73800001D01*
X120790001Y-73800001D02*
X120790001Y-63359999D01*
X122060001Y-73800001D02*
X125730000Y-77470000D01*
X125730000Y-87630000D02*
X125729998Y-87630002D01*
X125730000Y-77470000D02*
X125730000Y-87630000D01*
X140072000Y-87630002D02*
X125729998Y-87630002D01*
%TO.N,Net-(J1-Pad21)*%
X128040000Y-75817002D02*
X128040000Y-67540000D01*
X137313000Y-85090002D02*
X128040000Y-75817002D01*
X138561002Y-85090002D02*
X137313000Y-85090002D01*
X138621004Y-85030000D02*
X138561002Y-85090002D01*
X139706002Y-85030000D02*
X138621004Y-85030000D01*
X140851002Y-85090002D02*
X139766004Y-85090002D01*
X140911004Y-85030000D02*
X140851002Y-85090002D01*
X141996002Y-85030000D02*
X140911004Y-85030000D01*
X143296003Y-86330001D02*
X141996002Y-85030000D01*
X139766004Y-85090002D02*
X139706002Y-85030000D01*
X143662001Y-86330001D02*
X143296003Y-86330001D01*
%TO.N,Net-(J1-Pad24)*%
X158750000Y-58420000D02*
X158750000Y-62230000D01*
X150532001Y-89572001D02*
X151130000Y-90170000D01*
X150532001Y-86330001D02*
X150532001Y-89572001D01*
X151130000Y-90170000D02*
X184150000Y-90170000D01*
X185420000Y-57150000D02*
X160020000Y-57150000D01*
X160020000Y-57150000D02*
X158750000Y-58420000D01*
X186690000Y-58420000D02*
X185420000Y-57150000D01*
X186690000Y-87630000D02*
X186690000Y-58420000D01*
X184150000Y-90170000D02*
X186690000Y-87630000D01*
%TO.N,Net-(J1-Pad25)*%
X166370000Y-58420000D02*
X166370000Y-62230000D01*
X185420000Y-58420000D02*
X166370000Y-58420000D01*
X152822001Y-88477999D02*
X153244002Y-88900000D01*
X153244002Y-88900000D02*
X184150000Y-88900000D01*
X184150000Y-88900000D02*
X185420000Y-87630000D01*
X152822001Y-86330001D02*
X152822001Y-88477999D01*
X185420000Y-87630000D02*
X185420000Y-58420000D01*
%TO.N,Net-(J1-Pad26)*%
X155112001Y-86330001D02*
X156210000Y-87428000D01*
X156210000Y-87428000D02*
X157278000Y-87428000D01*
X157278000Y-87428000D02*
X157480000Y-87630000D01*
X157480000Y-87630000D02*
X182880000Y-87630000D01*
X173990000Y-59690000D02*
X173990000Y-62230000D01*
X184150000Y-59690000D02*
X184150000Y-86360000D01*
X182880000Y-87630000D02*
X184150000Y-86360000D01*
X184150000Y-59690000D02*
X173990000Y-59690000D01*
%TD*%
M02*
